# xmcd
#
# Track frame offsets: 
#        150
#        15275
#        45757
#
# Disc length: 3334 seconds
#
# Revision: 0
# Processed by: cddbd v1.5.2PL0 Copyright (c) Steve Scherf et al.
# Submitted via: ExactAudioCopy v0.95a5
#
DISCID=0e0d0403
DTITLE=Jimi Hendrix - Record Plant Jam
DYEAR=1991
DGENRE=Blues
TTITLE0=Cactus
TTITLE1=Cherokee Mist
TTITLE2=Driving South Jam
EXTD=
EXTT0=
EXTT1=
EXTT2=
PLAYORDER=
